<?xml version="1.0" standalone="no"?>
<!DOCTYPE svg PUBLIC "-//W3C//DTD SVG 20010904//EN"
 "http://www.w3.org/TR/2001/REC-SVG-20010904/DTD/svg10.dtd">
<svg version="1.0" xmlns="http://www.w3.org/2000/svg"
 width="3261.000000pt" height="1891.000000pt" viewBox="0 0 3261.000000 1891.000000"
 preserveAspectRatio="xMidYMid meet">

<g transform="translate(0.000000,1891.000000) scale(0.100000,-0.100000)"
fill="#000000" stroke="none">
<path d="M13580 18891 c0 -25 151 -514 203 -656 87 -238 2079 -5576 3170
-8495 766 -2048 771 -2061 872 -2265 155 -312 299 -444 557 -509 187 -48 265
-51 1143 -51 718 0 837 3 954 18 297 38 449 100 568 231 174 190 247 483 382
1536 120 929 102 1815 -54 2726 -122 716 -349 1493 -640 2194 -369 890 -935
1913 -1402 2535 -1144 1523 -2792 2418 -4933 2680 -392 47 -820 77 -820 56z"/>
<path d="M13414 5139 c-248 -22 -509 -107 -674 -219 -167 -113 -301 -294 -358
-481 -42 -138 -47 -338 -12 -470 57 -213 201 -385 436 -523 142 -83 341 -146
884 -280 405 -100 472 -121 605 -186 213 -105 305 -241 305 -448 -1 -309 -259
-525 -695 -583 -56 -7 -152 -9 -255 -6 -189 6 -317 31 -464 91 -304 122 -460
312 -521 630 -9 44 -16 81 -18 82 -1 1 -90 -7 -197 -17 -107 -10 -205 -18
-217 -19 -20 0 -23 -5 -23 -44 0 -66 27 -211 57 -301 93 -287 302 -525 581
-664 135 -68 345 -124 562 -152 145 -19 494 -16 615 4 330 57 549 161 740 352
171 171 259 345 286 565 48 403 -151 739 -555 935 -159 78 -273 110 -971 278
-452 109 -611 191 -688 355 -30 63 -32 74 -32 178 0 107 1 112 37 186 45 89
140 185 233 235 82 43 211 79 336 94 144 16 417 6 530 -20 305 -70 483 -249
544 -546 9 -44 17 -80 18 -81 1 -1 88 4 192 12 105 7 205 13 224 14 l33 0 -6
68 c-37 356 -235 646 -554 806 -255 128 -624 187 -978 155z"/>
<path d="M17084 5140 c-508 -50 -952 -298 -1201 -672 -330 -497 -396 -1243
-167 -1898 153 -440 439 -762 807 -910 377 -151 911 -170 1283 -45 300 101
562 308 731 580 92 146 228 491 200 506 -15 8 -433 109 -451 109 -8 0 -18 -23
-25 -57 -7 -32 -31 -103 -52 -159 -129 -333 -364 -546 -699 -634 -118 -30
-349 -39 -476 -16 -368 64 -636 251 -789 552 -117 228 -175 517 -175 863 0
329 71 644 194 865 188 336 545 526 991 526 433 0 719 -174 893 -543 22 -45
47 -105 56 -133 l17 -51 142 33 c78 18 180 41 226 51 47 10 86 24 89 31 7 19
-51 170 -109 281 -69 132 -147 237 -258 344 -200 194 -430 308 -721 358 -133
23 -374 32 -506 19z"/>
<path d="M27128 5139 c-669 -59 -1193 -462 -1406 -1080 -78 -225 -113 -448
-114 -729 0 -102 5 -229 11 -283 26 -207 96 -438 191 -627 156 -311 419 -569
734 -719 685 -327 1588 -163 2056 374 293 336 446 818 427 1340 -13 328 -76
594 -202 847 -79 160 -165 278 -295 408 -351 353 -848 519 -1402 469z m378
-400 c167 -23 358 -97 505 -195 281 -189 468 -533 520 -956 18 -152 7 -506
-20 -641 -89 -443 -330 -762 -694 -919 -158 -68 -306 -97 -499 -98 -207 0
-367 34 -535 115 -126 60 -202 113 -310 218 -109 105 -177 200 -243 340 -90
188 -128 362 -137 618 -18 519 102 934 338 1170 171 171 422 302 649 339 41 6
82 13 90 15 40 7 267 4 336 -6z"/>
<path d="M30694 5139 c-248 -22 -509 -107 -674 -219 -167 -113 -301 -294 -358
-481 -42 -138 -47 -338 -12 -470 57 -213 201 -385 436 -523 142 -83 341 -146
884 -280 405 -100 472 -121 605 -186 213 -105 305 -241 305 -448 -1 -309 -259
-525 -695 -583 -56 -7 -152 -9 -255 -6 -189 6 -317 31 -464 91 -304 122 -460
312 -521 630 -9 44 -16 81 -18 82 -1 1 -90 -7 -197 -17 -107 -10 -205 -18
-217 -19 -20 0 -23 -5 -23 -44 0 -66 27 -211 57 -301 93 -287 302 -525 581
-664 135 -68 345 -124 562 -152 145 -19 494 -16 615 4 330 57 549 161 740 352
171 171 259 345 286 565 48 403 -151 739 -555 935 -159 78 -273 110 -971 278
-452 109 -611 191 -688 355 -30 63 -32 74 -32 178 0 107 1 112 37 186 45 89
140 185 233 235 82 43 211 79 336 94 144 16 417 6 530 -20 305 -70 483 -249
544 -546 9 -44 17 -80 18 -81 1 -1 88 4 192 12 105 7 205 13 224 14 l33 0 -6
68 c-37 356 -235 646 -554 806 -255 128 -624 187 -978 155z"/>
<path d="M145 4788 c45 -167 259 -954 475 -1750 l394 -1448 241 0 241 0 393
1380 c216 759 410 1448 431 1531 21 83 40 152 42 154 2 3 25 -69 50 -158 25
-89 219 -777 432 -1529 212 -752 386 -1370 386 -1373 0 -3 103 -5 229 -5 l228
0 18 63 c50 182 956 3405 961 3420 5 16 -9 17 -232 15 l-238 -3 -323 -1290
c-177 -710 -343 -1382 -369 -1495 -25 -113 -47 -206 -49 -208 -2 -2 -8 30 -15
70 -25 161 -112 574 -159 760 -38 151 -561 1974 -612 2136 l-11 32 -283 0
-284 0 -20 -67 c-253 -864 -699 -2434 -751 -2645 -38 -154 -71 -282 -74 -285
-3 -3 -8 12 -11 33 -32 184 -127 599 -387 1692 l-302 1272 -241 0 -242 0 82
-302z"/>
<path d="M5143 3903 c3 -1305 2 -1260 66 -1517 57 -223 146 -383 294 -522 175
-165 406 -265 717 -311 157 -23 513 -22 660 1 363 57 635 204 813 438 126 166
183 320 234 633 15 88 17 246 20 1283 l4 1182 -236 0 -235 0 0 -1102 c0 -1198
-2 -1259 -56 -1467 -88 -340 -289 -498 -699 -552 -146 -19 -399 -7 -519 25
-198 52 -352 152 -444 290 -58 86 -86 156 -112 276 -37 169 -40 268 -40 1411
l0 1119 -235 0 -236 0 4 -1187z"/>
<path d="M8740 3340 l0 -1750 225 0 225 0 0 1370 c0 754 4 1370 8 1370 4 0
430 -616 946 -1370 l938 -1370 239 0 239 0 0 1750 0 1750 -225 0 -225 0 -2
-1371 -3 -1370 -939 1370 -939 1371 -244 0 -243 0 0 -1750z"/>
<path d="M19350 3340 l0 -1750 235 0 235 0 0 825 0 825 935 0 935 0 0 -825 0
-825 235 0 235 0 0 1750 0 1750 -235 0 -235 0 0 -720 0 -720 -935 0 -935 0 0
720 0 720 -235 0 -235 0 0 -1750z"/>
<path d="M22940 3340 l0 -1750 1120 0 1120 0 0 205 0 205 -885 0 -885 0 0
1545 0 1545 -235 0 -235 0 0 -1750z"/>
</g>
</svg>
